<?xml version="1.0" encoding="UTF-8" standalone="no"?>
<!-- Created with Inkscape (http://www.inkscape.org/) -->

<svg
   width="32.010422mm"
   height="3.9067349mm"
   viewBox="0 0 32.010422 3.9067349"
   version="1.1"
   id="svg1"
   inkscape:version="1.4.2 (f4327f4, 2025-05-13)"
   sodipodi:docname="描画_163A63ff.svg"
   xmlns:inkscape="http://www.inkscape.org/namespaces/inkscape"
   xmlns:sodipodi="http://sodipodi.sourceforge.net/DTD/sodipodi-0.dtd"
   xmlns="http://www.w3.org/2000/svg"
   xmlns:svg="http://www.w3.org/2000/svg">
  <sodipodi:namedview
     id="namedview1"
     pagecolor="#ffffff"
     bordercolor="#000000"
     borderopacity="0.25"
     inkscape:showpageshadow="2"
     inkscape:pageopacity="0.0"
     inkscape:pagecheckerboard="0"
     inkscape:deskcolor="#d1d1d1"
     inkscape:document-units="mm"
     inkscape:zoom="2.6587215"
     inkscape:cx="-23.131419"
     inkscape:cy="43.441933"
     inkscape:window-width="2298"
     inkscape:window-height="1191"
     inkscape:window-x="80"
     inkscape:window-y="118"
     inkscape:window-maximized="0"
     inkscape:current-layer="layer1" />
  <defs
     id="defs1" />
  <g
     inkscape:label="Layer 1"
     inkscape:groupmode="layer"
     id="layer1"
     transform="translate(-10.134798,-17.339056)">
    <path
       style="font-weight:bold;font-size:4.23333px;font-family:'Meiryo UI';-inkscape-font-specification:'Meiryo UI, Bold';fill:#163a63;stroke-width:0.264583;fill-opacity:1"
       d="m 13.996058,18.170013 h -0.864029 v 0.227376 h -0.558105 v -0.227376 h -0.996321 v 0.235644 H 11.0319 V 18.170013 H 10.151335 V 17.725596 H 11.0319 v -0.250114 h 0.545703 v 0.250114 h 0.996321 v -0.250114 h 0.558105 v 0.250114 h 0.864029 z m -1.876887,2.087726 q -0.485758,0.731737 -1.802472,0.934309 l -0.181901,-0.479557 q 0.971516,-0.159163 1.415933,-0.646988 h -1.370458 v -0.460954 h 0.343132 v -0.965315 h 1.26297 v -0.326595 h 0.587044 v 0.326595 h 1.279508 v 0.965315 h 0.312125 v 0.460954 h -1.31258 q 0.481624,0.467154 1.389061,0.630451 l -0.291455,0.504362 q -1.068667,-0.235644 -1.630907,-0.942577 z m 0.254248,-1.174088 v 0.520898 h 0.729671 v -0.520898 z m -0.587044,0.520898 v -0.520898 h -0.706933 v 0.520898 z m 6.463683,1.033528 h -1.68465 v 0.553971 h -0.576709 v -0.553971 h -1.620571 v -0.463021 h 1.620571 v -0.235644 h -1.374592 v -1.850015 h 0.179834 q -0.12609,-0.250113 -0.248046,-0.456819 l 0.545702,-0.183968 q 0.124024,0.206706 0.3514,0.640787 h 0.572574 q -0.08475,-0.202571 -0.250114,-0.56844 l 0.541569,-0.12609 q 0.237711,0.465087 0.332796,0.69453 h 0.525032 q 0.09095,-0.150895 0.361735,-0.661457 l 0.587044,0.144694 q -0.167432,0.281119 -0.324528,0.516763 h 0.206705 v 1.850015 h -1.430402 v 0.235644 h 1.68465 z m -2.261359,-2.112531 h -0.808218 v 0.312126 h 0.808218 z m 1.418001,0.312126 -0.0041,-0.312126 h -0.837157 v 0.312126 z m -1.418001,0.355533 h -0.808218 v 0.322461 h 0.808218 z m 1.418001,0.322461 v -0.322461 h -0.841292 v 0.322461 z m 5.12423,-0.02067 h -2.410187 v -0.444417 h 0.458887 l 0.07648,-0.343131 h -0.411344 v -0.432015 h 0.508495 l 0.07028,-0.310058 h -0.63872 v -0.42788 h 2.209683 v 0.42788 h -1.008724 l -0.07235,0.310058 h 0.928107 v 0.775146 h 0.289388 z m -1.395262,-0.444417 h 0.584976 V 18.707447 H 21.214216 Z M 20.035994,17.911631 H 18.75442 v -0.367936 h 1.281574 z m 0.101286,0.587043 h -1.527554 v -0.413411 h 1.527554 z m -0.121956,0.543636 h -1.25677 v -0.361735 h 1.25677 z m 0,0.553971 h -1.25677 v -0.363802 h 1.25677 z m 1.773533,1.442805 h -0.961181 v 0.128157 h -0.520898 v -1.444872 h 2.011246 v 1.444872 h -0.529167 z m -0.961181,-0.419613 h 0.961181 v -0.477489 h -0.961181 z m -0.787548,0.403076 h -0.845425 v 0.152962 H 18.698609 V 19.78645 h 1.341519 z m -0.489892,-0.363802 v -0.504361 h -0.338997 v 0.504361 z m 5.436356,-0.16123 h -0.529166 l 0.0021,-0.812353 q -0.506429,0.361735 -0.506429,0.675927 0,0.312126 0.556038,0.312126 l 0.179834,-0.0021 q 0.740006,0 1.099674,-0.06821 l 0.02274,0.516764 q -0.473355,0.05581 -0.928108,0.05581 -0.872297,0 -1.169953,-0.183968 -0.297656,-0.1819 -0.297656,-0.564306 0,-0.628385 0.959114,-1.234032 -0.03927,-0.06821 -0.121956,-0.06821 -0.146761,0 -0.365869,0.138493 -0.219108,0.138493 -0.496094,0.456819 -0.188102,0.223242 -0.272851,0.30179 l -0.359668,-0.388606 q 0.576709,-0.5333 0.872298,-1.190624 h -0.706933 v -0.489892 h 0.878498 q 0.07855,-0.250114 0.115756,-0.469222 l 0.537434,0.03307 q -0.04754,0.256315 -0.09509,0.436149 h 1.068668 v 0.489892 h -1.227831 q -0.04341,0.107487 -0.159163,0.330729 0.165364,-0.06821 0.318326,-0.06821 0.332796,0 0.481624,0.260449 0.21084,-0.115755 0.892968,-0.454752 l 0.188102,0.491959 q -0.318326,0.138493 -0.954979,0.434082 0.01654,0.155029 0.01654,0.332796 z m 3.977015,0.520898 q -0.479557,0.155029 -1.050064,0.155029 -0.828889,0 -1.169953,-0.245979 -0.341065,-0.248047 -0.341065,-0.72347 0,-0.481624 0.322461,-0.748274 0.322461,-0.26665 0.81442,-0.26665 0.171566,0 0.475423,0.07235 -0.157096,-0.252181 -0.279053,-0.539502 h -1.426268 v -0.512629 h 1.244367 q -0.08888,-0.305925 -0.148828,-0.644922 l 0.578776,-0.05581 q 0.03307,0.181901 0.169498,0.700732 h 1.099674 v 0.512629 h -0.928108 q 0.274918,0.5271 0.613916,0.810286 l -0.256315,0.436149 q -0.440283,-0.305924 -0.994254,-0.305924 -0.297656,0 -0.494026,0.136425 -0.196371,0.136426 -0.196371,0.392741 0,0.452685 0.977718,0.452685 0.202571,0 0.475422,-0.04547 0.272852,-0.04547 0.434082,-0.113688 z m 1.940966,-3.024102 q 0,0.130224 -0.0083,0.314192 h 0.45682 q 0.283186,0 0.454752,0.233578 0.173632,0.23151 0.173632,0.595312 0,0.915705 -0.175699,1.480011 -0.1757,0.564307 -0.597379,0.564307 -0.256315,0 -0.694531,-0.272852 l 0.152962,-0.535367 q 0.117822,0.08682 0.248047,0.152962 0.132291,0.06408 0.198437,0.06408 0.05995,0 0.10542,-0.06201 0.04547,-0.06201 0.09302,-0.250114 0.04754,-0.188102 0.07235,-0.429947 0.0248,-0.243913 0.0248,-0.558105 0,-0.21084 -0.0186,-0.295589 -0.0186,-0.08475 -0.06201,-0.126091 -0.04341,-0.04341 -0.107487,-0.04341 h -0.361735 q -0.146761,1.446939 -0.868163,2.420522 l -0.44235,-0.332796 q 0.217041,-0.316259 0.44235,-0.841291 0.225309,-0.527099 0.30179,-1.246435 h -0.615982 v -0.516764 h 0.65939 v -0.795816 h 0.568441 z m 2.131134,1.723924 -0.549837,0.152962 q -0.138493,-0.599446 -0.233577,-0.853694 -0.09302,-0.254247 -0.235645,-0.531233 -0.140559,-0.276985 -0.235644,-0.40721 l 0.456819,-0.295589 q 0.299723,0.401009 0.510563,0.926041 0.212907,0.525032 0.287321,1.008723 z m 0.49816,-1.761131 -0.295589,0.109554 Q 33.083249,17.684255 32.96336,17.444476 l 0.283186,-0.10542 q 0.142627,0.270785 0.287321,0.61805 z m -0.622184,0.05994 -0.295588,0.10542 q -0.121957,-0.299723 -0.287321,-0.618049 l 0.291455,-0.10542 q 0.192236,0.370003 0.291454,0.618049 z m 3.253546,2.614826 -0.01447,0.541568 q -0.134358,0.01034 -0.258382,0.01034 -0.67386,0 -1.11621,-0.274919 -0.440282,-0.276985 -0.440282,-0.81442 0,-0.3576 0.188102,-0.615982 -0.417546,0.04754 -0.940511,0.150895 l -0.04547,-0.516764 q 0.171566,-0.02274 0.419612,-0.101286 0.250114,-0.08061 0.322461,-0.117822 0.07441,-0.03927 0.347265,-0.24598 0.274919,-0.206705 0.568441,-0.500227 -0.690397,0.03514 -1.149283,0.03514 h -0.111621 v -0.529166 l 1.901691,-0.0062 0.200504,0.310058 q -0.338997,0.454752 -1.072802,1.016991 0.773079,-0.07028 1.300178,-0.07028 l 0.194304,0.0021 -0.0062,0.525032 q -0.419612,-0.01654 -0.69453,-0.01654 -0.250114,0 -0.527099,0.01447 -0.314193,0.24598 -0.314193,0.636654 0,0.584976 0.878499,0.584976 0.165364,0 0.370003,-0.0186 z m 2.980693,-2.794659 -0.103352,0.525032 q -0.345199,-0.111621 -0.899169,-0.167432 -0.551904,-0.05581 -0.936377,-0.05581 -0.09715,0 -0.183968,0.0041 l 0.0041,-0.516764 q 0.520898,0 0.97565,0.03927 0.456819,0.03927 1.143081,0.171566 z m -1.829344,3.346563 -0.08268,-0.516764 q 0.804085,-0.04548 1.229898,-0.343132 0.427881,-0.297656 0.427881,-0.83509 0,-0.235644 -0.136426,-0.363802 -0.134359,-0.128157 -0.361735,-0.128157 -0.157096,0 -0.338997,0.02067 -0.181901,0.02067 -0.322461,0.04754 -0.138492,0.02687 -0.892968,0.200504 l -0.03927,-0.5333 0.696598,-0.132292 q 0.30179,-0.05788 0.537435,-0.08061 0.235644,-0.02481 0.415478,-0.02481 0.483691,0 0.750341,0.258382 0.268717,0.256315 0.268717,0.735872 0,0.789615 -0.56844,1.219563 -0.56844,0.429947 -1.583365,0.475423 z m 4.828642,-3.32796 -0.08268,2.209683 h -0.580843 l -0.08475,-2.209683 z m -0.01654,3.115053 h -0.713134 v -0.537435 h 0.713134 z"
       id="text1"
       aria-label="英単語をさがそう！" />
    <text
       xml:space="preserve"
       style="font-size:3.175px;text-align:start;writing-mode:lr-tb;direction:ltr;text-anchor:start;fill:#000000;stroke-width:0.264583"
       x="74.730721"
       y="19.14007"
       id="text2"><tspan
         sodipodi:role="line"
         id="tspan2"
         style="stroke-width:0.264583"
         x="74.730721"
         y="19.14007" /><tspan
         sodipodi:role="line"
         style="stroke-width:0.264583"
         id="tspan3"
         x="74.730721"
         y="23.10882" /></text>
  </g>
</svg>
